<svg id="图层_1" data-name="图层 1" xmlns="http://www.w3.org/2000/svg" xmlns:xlink="http://www.w3.org/1999/xlink" viewBox="0 0 316.67 168.78"><defs><style>.cls-1{fill:#339cd1;}.cls-2{fill:#2ba23a;}.cls-3{fill:#138b3b;}.cls-4{fill:#026636;}.cls-5{fill:#004626;}.cls-6{fill:#192d79;}.cls-7{fill:#89b929;}.cls-8{fill:#0c68ab;}.cls-9{fill:url(#未命名的渐变_8);}.cls-10{fill:url(#未命名的渐变_8-2);}.cls-11{fill:url(#未命名的渐变_8-3);}.cls-12{fill:url(#未命名的渐变_8-4);}.cls-13{fill:url(#未命名的渐变_8-5);}.cls-14{fill:url(#未命名的渐变_8-6);}.cls-15{fill:url(#未命名的渐变_8-7);}.cls-16{fill:url(#未命名的渐变_8-8);}.cls-17{fill:url(#未命名的渐变_8-9);}.cls-18{fill:url(#未命名的渐变_8-10);}.cls-19{fill:url(#未命名的渐变_8-11);}.cls-20{fill:url(#未命名的渐变_8-12);}.cls-21{fill:url(#未命名的渐变_8-13);}</style><linearGradient id="未命名的渐变_8" x1="114.21" y1="85.01" x2="286.56" y2="-24.29" gradientUnits="userSpaceOnUse"><stop offset="0" stop-color="#0c68ab"/><stop offset="1" stop-color="#138b3b"/></linearGradient><linearGradient id="未命名的渐变_8-2" x1="119.37" y1="93.14" x2="291.72" y2="-16.15" xlink:href="#未命名的渐变_8"/><linearGradient id="未命名的渐变_8-3" x1="122.27" y1="97.72" x2="294.62" y2="-11.58" xlink:href="#未命名的渐变_8"/><linearGradient id="未命名的渐变_8-4" x1="129.29" y1="108.79" x2="301.64" y2="-0.51" xlink:href="#未命名的渐变_8"/><linearGradient id="未命名的渐变_8-5" x1="134.17" y1="116.49" x2="306.52" y2="7.19" xlink:href="#未命名的渐变_8"/><linearGradient id="未命名的渐变_8-6" x1="129.34" y1="108.87" x2="301.69" y2="-0.43" xlink:href="#未命名的渐变_8"/><linearGradient id="未命名的渐变_8-7" x1="134.49" y1="117" x2="306.85" y2="7.7" xlink:href="#未命名的渐变_8"/><linearGradient id="未命名的渐变_8-8" x1="138.67" y1="123.58" x2="311.02" y2="14.28" xlink:href="#未命名的渐变_8"/><linearGradient id="未命名的渐变_8-9" x1="144.64" y1="132.99" x2="316.99" y2="23.69" xlink:href="#未命名的渐变_8"/><linearGradient id="未命名的渐变_8-10" x1="150.28" y1="141.89" x2="322.63" y2="32.59" xlink:href="#未命名的渐变_8"/><linearGradient id="未命名的渐变_8-11" x1="155.41" y1="149.98" x2="327.77" y2="40.69" xlink:href="#未命名的渐变_8"/><linearGradient id="未命名的渐变_8-12" x1="160.84" y1="158.55" x2="333.19" y2="49.25" xlink:href="#未命名的渐变_8"/><linearGradient id="未命名的渐变_8-13" x1="126.68" y1="104.69" x2="299.04" y2="-4.61" xlink:href="#未命名的渐变_8"/></defs><circle class="cls-1" cx="48.54" cy="85.29" r="7.82"/><ellipse class="cls-2" cx="119.21" cy="79.01" rx="17.49" ry="7.82"/><path class="cls-3" d="M121.9,44.07s.69,11.76-6.14,18.59-15.15,9.58-18.59,6.14S96.49,57,103.32,50.21,121.9,44.07,121.9,44.07Z"/><path class="cls-4" d="M83.61,30.1s8.8,8.2,8.8,18.31-3.94,18.31-8.8,18.31-8.8-8.2-8.8-18.31S83.61,30.1,83.61,30.1Z"/><path class="cls-5" d="M83.61,66.72c-4.86,0-8.8-8.2-8.8-18.31s8.8-18.31,8.8-18.31"/><ellipse class="cls-6" cx="83.31" cy="114.99" rx="9.1" ry="14.32"/><ellipse class="cls-7" cx="109.61" cy="104.24" rx="9.1" ry="15.79" transform="translate(-41.6 108.04) rotate(-45)"/><ellipse class="cls-8" cx="58.61" cy="104.68" rx="11.47" ry="8.55" transform="translate(-56.85 72.11) rotate(-45)"/><path class="cls-9" d="M155.26,65.86h-4.14v6.75H146.9V53.27h8.36q7.11,0,7,6.3Q162.45,66,155.26,65.86ZM151.12,56v7.1h3.33q3.69.09,3.51-3.5.09-3.69-3.51-3.6Z"/><path class="cls-10" d="M169.11,72.61h-4.23V53.27h4.23Z"/><path class="cls-11" d="M190.6,53.27l-7.28,19.34h-5l-7.37-19.34h4.58l5.4,15.92L186,53.27Z"/><path class="cls-12" d="M211.19,63.07q-.45,9.36-9.62,9.89-9.16-.52-9.62-9.89.45-9.7,9.62-10.07Q210.57,53.54,211.19,63.07Zm-4.4,0q-.18-7.09-5.22-7.37-5,.36-5.3,7.37.18,7,5.3,7.38Q206.7,70.27,206.79,63.07Z"/><path class="cls-13" d="M230.35,56H224V72.61h-4.31V56h-6.39v-2.7h17.09Z"/><path class="cls-14" d="M155.26,99.31h-4.14v6.75H146.9V86.72h8.36q7.11,0,7,6.3Q162.45,99.49,155.26,99.31Zm-4.14-9.89v7.1h3.33q3.69.11,3.51-3.5.09-3.69-3.51-3.6Z"/><path class="cls-15" d="M169.11,106.06h-4.23V86.72h4.23Z"/><path class="cls-16" d="M191.14,96.52q-.45,9.36-9.62,9.9-9.18-.54-9.62-9.9.45-9.7,9.62-10.07Q190.51,87,191.14,96.52Zm-4.41,0q-.18-7.09-5.21-7.37-5,.36-5.31,7.37.18,7,5.31,7.38Q186.65,103.72,186.73,96.52Z"/><path class="cls-17" d="M211,106.06h-4l-8.91-13v13h-4.22V86.63h4.22l8.73,13.58V86.63H211Z"/><path class="cls-18" d="M229.63,106.06h-15.2V86.72h15.2v2.7H218.75v5.4h10.16V97.6H218.75v5.94h10.88Z"/><path class="cls-19" d="M247.52,106.06H232.33V86.72h15.19v2.7H236.64v5.4h10.17V97.6H236.64v5.94h10.88Z"/><path class="cls-20" d="M261.73,98.41l5.76,7.65h-4.95l-5.39-7.47h-2.7v7.47h-4.23V86.72h9.27q7,0,7,6Q266.59,97.87,261.73,98.41Zm-7.28-9v6.39h4.14q3.68.09,3.5-3,.09-3.51-3.5-3.42Z"/><rect class="cls-21" x="146.9" y="79.32" width="38.35" height="0.78"/></svg>